<svg width="56" height="56" viewBox="0 0 56 56" fill="none" xmlns="http://www.w3.org/2000/svg">
<rect width="56" height="56" rx="28" fill="black"/>
<path d="M22.4539 41.4639C21.9198 41.0968 21.4465 40.6432 21.0521 40.1205C20.6183 39.581 20.2163 39.015 19.8484 38.4256C18.9851 37.1188 18.308 35.6905 17.838 34.1847C17.2734 32.4355 17 30.7589 17 29.119C17 27.2876 17.3835 25.6889 18.1334 24.3455C18.6894 23.2955 19.5068 22.4181 20.501 21.804C21.4646 21.1856 22.5717 20.8472 23.7058 20.8244C24.1028 20.8244 24.5303 20.8839 24.984 20.9976C25.3099 21.0929 25.7069 21.2434 26.1919 21.4305C26.809 21.6763 27.1484 21.8267 27.2636 21.8634C27.625 21.9999 27.9289 22.0593 28.1676 22.0593C28.3487 22.0593 28.6044 21.9999 28.8947 21.9089C29.0581 21.8494 29.3662 21.7445 29.8072 21.5495C30.244 21.385 30.5877 21.2442 30.8611 21.1393C31.2801 21.0116 31.6856 20.8935 32.047 20.834C32.4755 20.7642 32.9104 20.7458 33.343 20.7789C34.0926 20.8296 34.831 20.9937 35.5345 21.2661C36.6849 21.7445 37.6152 22.4914 38.3076 23.5531C38.0149 23.7395 37.7402 23.9545 37.4873 24.1951C36.9368 24.6994 36.4679 25.2914 36.0983 25.9486C35.6152 26.8469 35.3647 27.8588 35.3711 28.8864C35.3889 30.1484 35.7021 31.26 36.3192 32.2212C36.7729 32.9336 37.3625 33.5428 38.0519 34.0115C38.4049 34.2573 38.7088 34.426 39 34.5397C38.8637 34.977 38.7181 35.4003 38.5463 35.8201C38.1566 36.7616 37.6842 37.6641 37.1352 38.5165C36.6459 39.2503 36.2625 39.7969 35.9713 40.1607C35.5176 40.7161 35.0808 41.1403 34.6398 41.4359C34.1548 41.7682 33.5817 41.9458 32.9993 41.9458C32.6049 41.9614 32.2106 41.9121 31.8312 41.7997C31.5053 41.686 31.1828 41.5627 30.8653 41.4219C30.5353 41.2653 30.195 41.1329 29.847 41.0257C28.9867 40.7974 28.0848 40.7959 27.2238 41.0213C26.8708 41.1263 26.5314 41.2487 26.1962 41.3992C25.7247 41.6038 25.4115 41.7411 25.2303 41.7997C24.8689 41.909 24.4939 41.9773 24.1147 42C23.528 42 22.9812 41.8268 22.4395 41.4761L22.4539 41.4639ZM30.1907 19.9358C29.4238 20.332 28.6916 20.5008 27.9644 20.4457C27.8502 19.6892 27.9644 18.9152 28.2683 18.0677C28.527 17.3497 28.9093 16.686 29.3967 16.1086C29.9114 15.5008 30.5359 15.0026 31.2352 14.6419C31.9801 14.2458 32.6903 14.0315 33.3692 14C33.4573 14.7924 33.3692 15.5716 33.0873 16.4139C32.8265 17.1584 32.4449 17.8516 31.959 18.4639C31.463 19.0726 30.8543 19.5727 30.1687 19.935L30.1907 19.9358Z" fill="white"/>
</svg>
