<svg width="13" height="14" viewBox="0 0 13 14" fill="none" xmlns="http://www.w3.org/2000/svg">
<path d="M8.85475 1.57867e-06C9.15193 -0.000696484 9.38692 0.230188 9.38761 0.538033L9.3883 1.06277C11.3165 1.21389 12.5903 2.52783 12.5924 4.54282L12.6 10.4409C12.6027 12.6378 11.2226 13.9895 9.01025 13.993L3.60632 14C1.40784 14.0028 0.0103762 12.6189 0.00761171 10.4157L4.63917e-06 4.5869C-0.00275522 2.55862 1.22607 1.24818 3.15432 1.07117L3.15363 0.546429C3.15294 0.238583 3.38101 0.00699965 3.68511 0.00699965C3.9892 0.0063 4.21728 0.237184 4.21797 0.545029L4.21866 1.03478L8.32396 1.02919L8.32327 0.539432C8.32258 0.231587 8.55065 0.000702813 8.85475 1.57867e-06ZM9.13673 9.93431H9.12982C8.8119 9.94201 8.55687 10.2086 8.56378 10.5304C8.56447 10.8523 8.82088 11.1174 9.1388 11.1244C9.46294 11.1237 9.72557 10.8572 9.72488 10.5283C9.72488 10.1995 9.46156 9.93431 9.13673 9.93431ZM3.44183 9.93501C3.12391 9.94901 2.8751 10.2156 2.87579 10.5374C2.89031 10.8592 3.15294 11.1111 3.47086 11.0964C3.78256 11.0824 4.03067 10.8159 4.01616 10.494C4.00925 10.1792 3.75284 9.93431 3.44183 9.93501ZM6.28928 9.93151C5.97136 9.94621 5.72324 10.2121 5.72324 10.5339C5.73776 10.8558 6.00039 11.1069 6.31831 11.0929C6.62931 11.0782 6.87812 10.8124 6.86361 10.4898C6.8567 10.1757 6.60029 9.93081 6.28928 9.93151ZM3.43837 7.41628C3.12045 7.43027 2.87234 7.69684 2.87303 8.01867C2.88685 8.34051 3.15017 8.59239 3.46809 8.57769C3.7791 8.5637 4.02722 8.29714 4.0127 7.9753C4.00579 7.66046 3.75007 7.41558 3.43837 7.41628ZM6.28651 7.39179C5.9686 7.40578 5.71979 7.67235 5.72048 7.99419C5.7343 8.31603 5.99762 8.5672 6.31554 8.55321C6.62655 8.53851 6.87466 8.27265 6.86084 7.95081C6.85324 7.63597 6.59752 7.39109 6.28651 7.39179ZM9.13396 7.39529C8.81604 7.40229 8.56724 7.66116 8.56793 7.98299V7.99069C8.57484 8.31253 8.83747 8.55671 9.15608 8.54971C9.46709 8.54201 9.7152 8.27545 9.70829 7.95361C9.69378 7.64576 9.44428 7.39459 9.13396 7.39529ZM8.32534 2.10664L4.22004 2.11224L4.22073 2.67826C4.22073 2.97981 3.99335 3.21769 3.68925 3.21769C3.38516 3.21839 3.15639 2.98121 3.15639 2.67966L3.1557 2.14093C1.808 2.27596 1.06227 3.06796 1.06434 4.5855L1.06504 4.80309L11.5287 4.7891V4.54422C11.499 3.03998 10.7443 2.25077 9.38968 2.13323L9.39037 2.67196C9.39037 2.97281 9.15608 3.21139 8.85889 3.21139C8.5548 3.21209 8.32603 2.97421 8.32603 2.67336L8.32534 2.10664Z" fill="#9AB5D1"/>
</svg>
