<svg width="17" height="18" viewBox="0 0 17 18" fill="none" xmlns="http://www.w3.org/2000/svg">
<path d="M11.3847 2.02972e-06C11.7668 -0.00089548 12.0689 0.295955 12.0698 0.691757L12.0707 1.36642C14.5499 1.56072 16.1875 3.25007 16.1902 5.84077L16.2 13.424C16.2035 16.2485 14.429 17.9865 11.5846 17.991L4.6367 18C1.81008 18.0036 0.0133409 16.2243 0.00978648 13.3916L5.96465e-06 5.89744C-0.00354243 3.28965 1.57638 1.6048 4.05556 1.37721L4.05467 0.702551C4.05378 0.30675 4.34701 0.00899955 4.738 0.00899955C5.12898 0.0081 5.42221 0.304951 5.4231 0.700752L5.42399 1.33044L10.7022 1.32324L10.7013 0.693556C10.7005 0.297755 10.9937 0.000903617 11.3847 2.02972e-06ZM11.7472 12.7727H11.7383C11.3296 12.7826 11.0017 13.1253 11.0106 13.5391C11.0115 13.9529 11.3411 14.2938 11.7499 14.3028C12.1666 14.3019 12.5043 13.9592 12.5034 13.5364C12.5034 13.1136 12.1649 12.7727 11.7472 12.7727ZM4.42521 12.7736C4.01646 12.7916 3.69656 13.1343 3.69745 13.5481C3.71611 13.9619 4.05378 14.2857 4.46253 14.2668C4.86329 14.2488 5.18229 13.9061 5.16363 13.4923C5.15475 13.0875 4.82508 12.7727 4.42521 12.7736ZM8.08622 12.7691C7.67746 12.788 7.35846 13.1298 7.35846 13.5436C7.37712 13.9574 7.71479 14.2803 8.12354 14.2623C8.52341 14.2435 8.8433 13.9016 8.82464 13.4869C8.81575 13.083 8.48608 12.7682 8.08622 12.7691ZM4.42077 9.53521C4.01201 9.55321 3.69301 9.89594 3.6939 10.3097C3.71167 10.7235 4.05022 11.0474 4.45898 11.0285C4.85884 11.0105 5.17785 10.6677 5.15919 10.254C5.1503 9.84916 4.82152 9.53432 4.42077 9.53521ZM8.08266 9.50373C7.67391 9.52172 7.35402 9.86445 7.3549 10.2782C7.37268 10.692 7.71123 11.015 8.11998 10.997C8.51985 10.9781 8.83886 10.6363 8.82108 10.2225C8.81131 9.81767 8.48253 9.50283 8.08266 9.50373ZM11.7437 9.50823C11.3349 9.51723 11.015 9.85006 11.0159 10.2639V10.2737C11.0248 10.6875 11.3625 11.0015 11.7721 10.9925C12.172 10.9826 12.491 10.6399 12.4821 10.2261C12.4634 9.83027 12.1426 9.50733 11.7437 9.50823ZM10.704 2.70854L5.42577 2.71574L5.42666 3.44348C5.42666 3.83118 5.13431 4.13703 4.74333 4.13703C4.35235 4.13793 4.05822 3.83298 4.05822 3.44527L4.05733 2.75262C2.32457 2.92623 1.36578 3.94452 1.36844 5.89564L1.36934 6.1754L14.8226 6.15741V5.84257C14.7844 3.90854 13.8141 2.89385 12.0724 2.74273L12.0733 3.43538C12.0733 3.82219 11.7721 4.12893 11.39 4.12893C10.999 4.12983 10.7049 3.82398 10.7049 3.43718L10.704 2.70854Z" fill="#02468D"/>
</svg>
