<svg width="64" height="64" viewBox="0 0 64 64" fill="none" xmlns="http://www.w3.org/2000/svg">
<g filter="url(#filter0_d)">
<circle cx="32" cy="26" r="20" fill="#02468D"/>
</g>
<path d="M34.8722 15C36.0578 15.0122 37.0233 15.6226 37.5855 16.7214C37.7307 17.0114 37.9331 17.4349 38.1451 17.8816L38.401 18.4218L38.5267 18.687L38.6489 18.9556C38.6978 19.0411 38.7833 19.1021 38.8933 19.1021C41.8267 19.1021 44.2222 21.495 44.2222 24.4251V31.677C44.2222 34.6071 41.8267 37 38.8933 37H25.1067C22.1611 37 19.7778 34.6071 19.7778 31.677V24.4251C19.7778 21.495 22.1611 19.1021 25.1067 19.1021C25.2044 19.1021 25.3022 19.0533 25.3389 18.9556L25.4122 18.8091C25.7544 18.0888 26.17 17.2098 26.4144 16.7214C26.9767 15.6226 27.93 15.0122 29.1155 15H34.8722ZM32 22.8257C30.7167 22.8257 29.5067 23.3263 28.59 24.242C27.6855 25.1576 27.1844 26.3541 27.1967 27.6238C27.1967 28.9057 27.6978 30.1021 28.6022 31.0178C29.5189 31.9212 30.7167 32.4218 32 32.4218C33.32 32.4218 34.5178 31.8846 35.3855 31.0178C36.2533 30.1509 36.7911 28.9545 36.8033 27.6238C36.8033 26.3541 36.3022 25.1454 35.3978 24.2297C34.4933 23.3263 33.2833 22.8257 32 22.8257ZM32 24.657C32.7944 24.657 33.54 24.9623 34.1022 25.5239C34.6644 26.0855 34.97 26.8302 34.97 27.6238C34.9578 29.2597 33.6378 30.5905 32 30.5905C31.2055 30.5905 30.46 30.2852 29.8978 29.7236C29.3355 29.162 29.03 28.4173 29.03 27.6238V27.6115C29.0178 26.8424 29.3233 26.0977 29.8855 25.5361C30.46 24.9623 31.2055 24.657 32 24.657ZM38.8567 22.5327C38.2455 22.5327 37.7567 23.0333 37.7567 23.6437C37.7567 24.2542 38.2455 24.7425 38.8567 24.7425C39.4678 24.7425 39.9689 24.2542 39.9689 23.6437C39.9689 23.0333 39.4678 22.5327 38.8567 22.5327Z" fill="white"/>
<defs>
<filter id="filter0_d" x="0" y="0" width="64" height="64" filterUnits="userSpaceOnUse" color-interpolation-filters="sRGB">
<feFlood flood-opacity="0" result="BackgroundImageFix"/>
<feColorMatrix in="SourceAlpha" type="matrix" values="0 0 0 0 0 0 0 0 0 0 0 0 0 0 0 0 0 0 127 0"/>
<feOffset dy="6"/>
<feGaussianBlur stdDeviation="6"/>
<feColorMatrix type="matrix" values="0 0 0 0 0.00784314 0 0 0 0 0.27451 0 0 0 0 0.552941 0 0 0 0.3 0"/>
<feBlend mode="normal" in2="BackgroundImageFix" result="effect1_dropShadow"/>
<feBlend mode="normal" in="SourceGraphic" in2="effect1_dropShadow" result="shape"/>
</filter>
</defs>
</svg>
