<svg width="13" height="7" viewBox="0 0 13 7" fill="none" xmlns="http://www.w3.org/2000/svg">
<path d="M3.72611e-05 1.13129C-0.000408107 1.27683 0.0284939 1.42063 0.0846177 1.55213C0.140741 1.68362 0.222661 1.79947 0.324358 1.89116L5.5836 6.59656C5.74044 6.73984 5.93718 6.81818 6.14021 6.81818C6.34323 6.81818 6.53997 6.73984 6.69681 6.59656L11.9561 1.72555C12.1351 1.56019 12.2476 1.32257 12.269 1.06497C12.2904 0.807364 12.2188 0.550875 12.07 0.351927C11.9212 0.152978 11.7074 0.0278678 11.4756 0.004117C11.2439 -0.0196338 11.0131 0.0599208 10.8341 0.22528L6.13582 4.57996L1.43756 0.371411C1.3089 0.252283 1.15223 0.176609 0.98608 0.153346C0.819933 0.130082 0.651266 0.160202 0.500038 0.240141C0.34881 0.32008 0.221352 0.446492 0.132742 0.60442C0.0441323 0.762348 -0.00191872 0.945182 3.72611e-05 1.13129Z" fill="#02468D"/>
</svg>
