<svg width="16" height="16" viewBox="0 0 16 16" fill="none" xmlns="http://www.w3.org/2000/svg">
<path d="M10.7972 0.222837H3.9349H3.20264C3.20264 0.222837 3.20267 7.36908 6.17557 9.02309C6.52599 9.21803 6.73883 9.59204 6.73883 9.99305H7.26101H8.26537C8.26537 9.59204 8.47821 9.21806 8.82864 9.02309C9.15078 8.84387 9.43797 8.60008 9.69406 8.30794C11.2002 6.58998 11.63 3.19802 11.7526 1.40226C11.8015 0.685411 11.8016 0.222778 11.8016 0.222778H10.7972V0.222837Z" fill="#FECE00"/>
<path d="M0.223362 2.86492C0.255334 0.140054 3.25142 1.40227 3.25142 1.40227C3.2702 1.67706 3.29619 1.98927 3.33209 2.32706C2.54382 2.04325 0.860124 1.62533 1.09652 3.34613C1.33641 5.09249 2.09807 6.29981 3.11207 6.9509C3.67666 7.31343 4.30058 7.36471 4.66097 7.35748C4.85139 7.70875 5.06655 8.03031 5.30995 8.30794V8.30797C5.30995 8.30797 4.03581 8.5454 2.76645 7.78154C1.58442 7.0702 0.191918 5.54299 0.223362 2.86492Z" fill="#EEBF00"/>
<path d="M8.26543 11.0155H6.73895V12.3691H8.26543V11.0155Z" fill="#FECE00"/>
<path d="M8.26572 11.0155H6.71375V11.5462H8.26572V11.0155Z" fill="#DDB201"/>
<path d="M10.6608 13.3451H4.34357V14.7797H10.6608V13.3451Z" fill="#3E3D43"/>
<path d="M10.6608 14.2273H4.34357V14.7795H10.6608V14.2273Z" fill="#444444"/>
<path d="M9.47129 12.369H5.53333V13.3449H9.47129V12.369Z" fill="#77767E"/>
<path d="M9.47129 12.8569H5.53333V13.3449H9.47129V12.8569Z" fill="#3E3D43"/>
<path d="M8.2907 11.0155H6.71349C6.43114 11.0155 6.20227 10.7866 6.20227 10.5043C6.20227 10.2219 6.43114 9.99304 6.71349 9.99304H8.2907C8.57305 9.99304 8.80192 10.2219 8.80192 10.5043C8.80192 10.7866 8.57305 11.0155 8.2907 11.0155Z" fill="#CBA400"/>
<path d="M10.7972 0.2229C10.7972 0.2229 10.7972 0.685533 10.7482 1.40238C10.6256 3.19815 10.1959 6.59008 8.68968 8.30806C8.43356 8.6002 8.1464 8.84399 7.82425 9.02321C7.47383 9.21815 7.26099 9.59216 7.26099 9.99317H8.26535C8.26535 9.59216 8.47819 9.21818 8.82861 9.02321C9.15076 8.84399 9.43794 8.6002 9.69404 8.30806C11.2002 6.59011 11.63 3.19815 11.7526 1.40238C11.8015 0.685533 11.8016 0.2229 11.8016 0.2229H10.7972Z" fill="#DDB201"/>
<path d="M6.90783 9.02316C3.93493 7.36914 3.9349 0.2229 3.9349 0.2229H3.20264C3.20264 0.2229 3.20267 7.36914 6.17557 9.02316C6.52599 9.21809 6.73883 9.59211 6.73883 9.99311H7.26101C7.26101 9.82675 7.29814 9.66525 7.36604 9.51905C7.2703 9.31283 7.11285 9.13724 6.90783 9.02316Z" fill="#FEDA44"/>
<path d="M14.7806 2.86492C14.7486 0.140054 11.7526 1.40227 11.7526 1.40227C11.7338 1.67706 11.7078 1.98927 11.6719 2.32706C12.4602 2.04322 14.1439 1.6253 13.9075 3.3461C13.6676 5.09246 12.9059 6.29978 11.8919 6.95087C11.3273 7.3134 10.7034 7.36469 10.343 7.35745C10.1526 7.70872 9.93744 8.03028 9.69403 8.30792V8.30795C9.69403 8.30795 10.9682 8.54537 12.2375 7.78152C13.4196 7.0702 14.8121 5.54299 14.7806 2.86492Z" fill="#EEBF00"/>
<path d="M2.73599 2.15044C2.95706 2.20102 3.16477 2.26719 3.3321 2.32744C3.2962 1.98965 3.27021 1.6774 3.25143 1.40264C3.25143 1.40264 2.95677 1.27871 2.55151 1.19238C2.62442 1.50969 2.69352 1.82791 2.73599 2.15044Z" fill="#CBA400"/>
<path d="M4.66101 7.35742C4.47911 7.36108 4.23 7.34968 3.95532 7.29102C3.98219 7.36498 4.0093 7.43903 4.03773 7.51271C4.16831 7.79207 4.32814 8.06264 4.49081 8.32919C4.98087 8.36911 5.30996 8.30795 5.30996 8.30795V8.30792C5.06659 8.03026 4.85143 7.7087 4.66101 7.35742Z" fill="#CBA400"/>
<path d="M12.2681 2.15007C12.047 2.20065 11.8393 2.26682 11.6719 2.32708C11.7078 1.98928 11.7338 1.67704 11.7526 1.40228C11.7526 1.40228 12.0473 1.27835 12.4525 1.19202C12.3796 1.50933 12.3105 1.82755 12.2681 2.15007Z" fill="#CBA400"/>
<path d="M10.343 7.35742C10.5249 7.36108 10.7741 7.34968 11.0487 7.29102C11.0219 7.36498 10.9948 7.43903 10.9663 7.51271C10.8357 7.79207 10.6759 8.06264 10.5132 8.32919C10.0232 8.36911 9.69409 8.30795 9.69409 8.30795V8.30792C9.93744 8.03026 10.1526 7.7087 10.343 7.35742Z" fill="#CBA400"/>
<path d="M8.48814 12.5919H6.51599V10.7927H8.48814V12.5919ZM6.96163 12.1463H8.04253V11.2384H6.96163V12.1463Z" fill="black"/>
<path d="M8.29072 11.2382H6.71348C6.30873 11.2382 5.97943 10.909 5.97943 10.5042C5.97943 10.0994 6.30873 9.77014 6.71348 9.77014H8.29072C8.69548 9.77014 9.02477 10.0994 9.02477 10.5042C9.02477 10.909 8.69548 11.2382 8.29072 11.2382ZM6.71348 10.2158C6.55445 10.2158 6.42507 10.3452 6.42507 10.5042C6.42507 10.6633 6.55445 10.7926 6.71348 10.7926H8.29072C8.44976 10.7926 8.57914 10.6633 8.57914 10.5042C8.57914 10.3452 8.44976 10.2158 8.29072 10.2158H6.71348Z" fill="black"/>
<path d="M9.69385 13.5678H5.31042V12.1462H9.69385V13.5678ZM5.75606 13.1221H9.24821V12.5919H5.75606V13.1221Z" fill="black"/>
<path d="M10.8836 15.0025H4.12061V13.1221H10.8836V15.0025ZM4.56624 14.5568H10.438V13.5677H4.56624V14.5568Z" fill="black"/>
<path d="M8.48817 10.2158H6.51602V9.99304C6.51602 9.66891 6.34403 9.37184 6.06725 9.21779C5.34712 8.81713 4.73729 8.08572 4.2547 7.04391C3.87705 6.22862 3.57442 5.21911 3.35525 4.04355C2.98411 2.05303 2.9798 0.240885 2.9798 0.222804V0H12.0244L12.0244 0.222833C12.0244 0.242027 12.0238 0.701261 11.9749 1.41747C11.8469 3.29141 11.4023 6.69759 9.86159 8.45484C9.57939 8.77675 9.26829 9.03349 8.93697 9.21782C8.66016 9.37187 8.4882 9.66891 8.4882 9.99307L8.48817 10.2158ZM6.94326 9.77021H8.061C8.12708 9.37378 8.3672 9.02485 8.72032 8.82839C9.00686 8.66897 9.27808 8.44444 9.52652 8.16103C10.9808 6.50227 11.4062 3.20497 11.5303 1.38708C11.5583 0.975905 11.5702 0.647458 11.5752 0.445607H3.42942C3.46136 1.65504 3.74726 7.41707 6.2839 8.82836C6.63702 9.02488 6.8772 9.37378 6.94326 9.77021Z" fill="black"/>
<path d="M10.1839 8.56569C10.1838 8.56569 10.1839 8.56569 10.1838 8.56569C9.86452 8.56567 9.66179 8.52862 9.65333 8.52701L9.26855 8.45539L9.52658 8.16108C9.74818 7.90833 9.95698 7.60221 10.1473 7.25129L10.212 7.13196L10.3476 7.13472C10.3662 7.13507 10.3854 7.13527 10.4053 7.13527C10.7645 7.13527 11.293 7.07077 11.7716 6.76343C12.7912 6.10876 13.4713 4.88438 13.6868 3.31582C13.7385 2.93922 13.6928 2.66578 13.5509 2.50308C13.4274 2.36148 13.2158 2.28969 12.9219 2.28969C12.5183 2.28969 12.0605 2.42402 11.7475 2.53675L11.4129 2.65725L11.4504 2.30361C11.4827 2.00013 11.5095 1.69178 11.5304 1.38716L11.5397 1.25028L11.6661 1.197C11.6962 1.18434 12.4092 0.887573 13.1685 0.887573C14.3369 0.887573 14.9886 1.58889 15.0035 2.86236C15.0182 4.11513 14.7325 5.23029 14.1544 6.17692C13.5867 7.10632 12.8612 7.66636 12.3525 7.97245C11.5378 8.46272 10.7235 8.56569 10.1839 8.56569ZM10.1284 8.11962C10.1464 8.11991 10.1649 8.12006 10.1838 8.12006C10.1838 8.12006 10.1839 8.12006 10.1839 8.12006C10.6671 8.12006 11.3956 8.02819 12.1227 7.59064C12.8663 7.14313 14.5922 5.78711 14.5579 2.86757C14.5458 1.83508 14.0913 1.33318 13.1685 1.33318C12.675 1.33318 12.1876 1.48193 11.9647 1.56041C11.9537 1.70972 11.9412 1.85961 11.9274 2.00909C12.2302 1.92012 12.5871 1.84399 12.9219 1.84399C13.3503 1.84399 13.6749 1.96716 13.8868 2.21012C14.117 2.47425 14.1983 2.86664 14.1283 3.37639C14.0083 4.2497 13.7576 5.02159 13.383 5.67057C13.0255 6.29013 12.5643 6.78397 12.0124 7.13832C11.4733 7.4845 10.8902 7.5718 10.4743 7.58015C10.3644 7.77341 10.2489 7.95364 10.1284 8.11962Z" fill="black"/>
<path d="M4.82028 8.56575C4.2806 8.56575 3.46632 8.46281 2.65156 7.97251C2.14286 7.66639 1.41733 7.10638 0.8497 6.17695C0.271548 5.23029 -0.0141433 4.11513 0.000538323 2.86236C0.0154837 1.58892 0.667161 0.887573 1.83557 0.887573C2.59485 0.887573 3.30792 1.18434 3.3379 1.197L3.46432 1.25028L3.47367 1.38713C3.49457 1.6926 3.52144 2.00092 3.55361 2.30358L3.59118 2.65725L3.25655 2.53675C2.94358 2.42405 2.48572 2.28971 2.08211 2.28971C1.78821 2.28971 1.57657 2.36148 1.45314 2.50308C1.31122 2.66584 1.2655 2.93925 1.31723 3.31582C1.5327 4.88438 2.21287 6.10879 3.23241 6.76343C3.71104 7.07077 4.23958 7.13527 4.59868 7.13527C4.61863 7.13527 4.63789 7.13507 4.65641 7.13472L4.79209 7.13196L4.85676 7.25129C5.04704 7.60227 5.25586 7.90839 5.47741 8.16106L5.53271 8.22409V8.30793C5.53271 8.36592 5.51084 8.5041 5.30829 8.53384C5.27559 8.53865 5.23957 8.5431 5.20127 8.54703C5.08153 8.55948 4.95332 8.56575 4.82028 8.56575ZM1.83557 1.33321C0.912764 1.33321 0.458277 1.83511 0.446145 2.86754C0.411859 5.78705 2.13773 7.14313 2.88134 7.59061C3.60847 8.02819 4.33707 8.12003 4.82025 8.12003C4.83918 8.12003 4.85761 8.11988 4.87558 8.11959C4.75514 7.95361 4.63956 7.77338 4.52975 7.58021C4.11383 7.57186 3.53073 7.48456 2.99167 7.13838C2.43971 6.78397 1.97858 6.29013 1.62103 5.67063C1.24649 5.02164 0.995755 4.24979 0.875781 3.37645C0.805743 2.86667 0.887005 2.47428 1.11731 2.21018C1.32912 1.96722 1.65376 1.84408 2.08217 1.84408C2.41694 1.84408 2.77379 1.92018 3.07665 2.00918C3.06291 1.8599 3.05042 1.70998 3.03932 1.56047C2.81654 1.48199 2.32909 1.33321 1.83557 1.33321Z" fill="black"/>
<path d="M11.7826 0.74939H3.20276V1.19503H11.7826V0.74939Z" fill="black"/>
<path d="M5.67067 7.98117C5.5284 7.82841 5.39186 7.65316 5.26477 7.46025L5.63691 7.21509C5.75035 7.38731 5.87141 7.54283 5.99677 7.67743L5.67067 7.98117Z" fill="white"/>
<path d="M5.09384 7.1806C4.74494 6.56646 4.45972 5.78009 4.24597 4.84337L4.68044 4.74426C4.88449 5.63855 5.15392 6.38415 5.48131 6.96046L5.09384 7.1806Z" fill="white"/>
<path d="M12.6251 10.149L12.6243 8.95081L12.1787 8.95111L12.1795 10.1493L12.6251 10.149Z" fill="black"/>
<path d="M13.0018 9.77242L13.0015 9.32678L11.8034 9.32756L11.8037 9.7732L13.0018 9.77242Z" fill="black"/>
<path d="M2.98665 11.3149H2.54102V12.3919H2.98665V11.3149Z" fill="black"/>
<path d="M3.30247 11.6305H2.22552V12.0761H3.30247V11.6305Z" fill="black"/>
<path d="M1.85177 8.4436H1.4314V8.88924H1.85177V8.4436Z" fill="black"/>
<path d="M4.55349 9.76208H4.13312V10.2077H4.55349V9.76208Z" fill="black"/>
<path d="M11.3291 11.1028H10.9087V11.5484H11.3291V11.1028Z" fill="black"/>
</svg>
