<svg width="30" height="30" viewBox="0 0 30 30" fill="none" xmlns="http://www.w3.org/2000/svg">
<path d="M25.8779 14.472C25.7099 14.232 21.8219 8.52002 15.0059 8.52002C8.18992 8.52002 4.30192 14.232 4.13392 14.472C3.91792 14.784 3.91792 15.216 4.13392 15.552C4.30192 15.792 8.18992 21.504 15.0059 21.504C21.8219 21.504 25.7099 15.792 25.8779 15.552C26.0939 15.216 26.0939 14.784 25.8779 14.472ZM15.0059 19.56C10.3739 19.56 7.20592 16.296 6.12592 15C7.20592 13.68 10.3499 10.44 15.0059 10.44C19.6379 10.44 22.8059 13.704 23.8859 15C22.8059 16.32 19.6379 19.56 15.0059 19.56ZM15.5579 11.064C14.5019 10.92 13.4699 11.184 12.6059 11.832C10.8539 13.152 10.4939 15.648 11.8139 17.4C12.4619 18.264 13.3739 18.792 14.4299 18.96C14.6219 18.984 14.8139 19.008 14.9819 19.008C15.8459 19.008 16.6619 18.72 17.3579 18.216C19.1099 16.896 19.4699 14.4 18.1499 12.648C17.5499 11.76 16.6139 11.208 15.5579 11.064ZM16.5179 17.04C15.9899 17.448 15.3179 17.616 14.6459 17.52C13.9739 17.424 13.3739 17.064 12.9659 16.536C12.1259 15.408 12.3419 13.824 13.4699 12.96C13.9979 12.552 14.6699 12.384 15.3419 12.48C16.0139 12.576 16.6139 12.936 17.0219 13.464C17.8619 14.592 17.6459 16.2 16.5179 17.04ZM16.4219 13.56C16.6139 13.728 16.7099 13.992 16.7099 14.232C16.7099 14.472 16.6139 14.736 16.4219 14.904C16.2539 15.072 15.9899 15.192 15.7499 15.192C15.4859 15.192 15.2459 15.096 15.0779 14.904C14.8859 14.712 14.7899 14.472 14.7899 14.232C14.7899 13.968 14.8859 13.728 15.0779 13.56C15.2459 13.368 15.5099 13.272 15.7499 13.272C16.0139 13.296 16.2539 13.392 16.4219 13.56Z" fill="#BBC3CE"/>
</svg>
