<svg width="56" height="56" viewBox="0 0 56 56" fill="none" xmlns="http://www.w3.org/2000/svg">
<rect width="56" height="56" rx="28" fill="#3276FA"/>
<path d="M34.4351 16.0052L30.8373 16C26.7953 16 24.1832 18.4149 24.1832 22.1525V24.9893H20.5657C20.2531 24.9893 20 25.2176 20 25.4993V29.6094C20 29.8911 20.2534 30.1191 20.5657 30.1191H24.1832V40.4902C24.1832 40.7719 24.4363 41 24.7489 41H29.4686C29.7812 41 30.0343 40.7716 30.0343 40.4902V30.1191H34.264C34.5766 30.1191 34.8297 29.8911 34.8297 29.6094L34.8314 25.4993C34.8314 25.364 34.7717 25.2345 34.6658 25.1388C34.5598 25.0431 34.4155 24.9893 34.2654 24.9893H30.0343V22.5845C30.0343 21.4287 30.34 20.842 32.0109 20.842L34.4346 20.8412C34.7469 20.8412 35 20.6128 35 20.3314V16.515C35 16.2338 34.7472 16.0057 34.4351 16.0052Z" fill="white"/>
</svg>
