<svg width="69" height="69" viewBox="0 0 69 69" fill="none" xmlns="http://www.w3.org/2000/svg">
<rect opacity="0.1" width="69" height="69" rx="16" fill="#1AB0B0"/>
<path d="M50.3779 37.1398H18.6221C16.5485 37.1398 14.8615 38.8268 14.8615 40.9004V51.7642C14.8615 53.8378 16.5485 55.5248 18.6221 55.5248H50.3779C52.4515 55.5248 54.1385 53.8378 54.1385 51.7642V40.9004C54.1385 38.8267 52.4515 37.1398 50.3779 37.1398ZM24.9706 51.757C24.0125 51.7622 23.3588 51.7647 22.9086 51.7647C21.9755 51.7647 21.9159 51.7545 21.8256 51.7389C21.2237 51.6358 20.7838 51.114 20.7838 50.5034V42.1537C20.7838 41.4614 21.3451 40.9001 22.0374 40.9001C22.7296 40.9001 23.2909 41.4614 23.2909 42.1537V49.2564C23.7923 49.2554 24.3896 49.2531 24.9566 49.2499H24.9638C25.6528 49.2499 26.2133 49.8065 26.2172 50.4964C26.2209 51.1887 25.6629 51.753 24.9706 51.757ZM30.8138 50.5105C30.8138 51.2027 30.2525 51.764 29.5602 51.764C28.868 51.764 28.3067 51.2027 28.3067 50.5105V42.1537C28.3067 41.4614 28.868 40.9001 29.5602 40.9001C30.2525 40.9001 30.8138 41.4614 30.8138 42.1537V50.5105ZM41.2883 42.5641L38.5598 50.7777C38.5588 50.7806 38.5579 50.7834 38.5569 50.7863C38.3594 51.3669 37.8147 51.7598 37.2013 51.7639C37.198 51.764 37.1948 51.764 37.1916 51.764C36.5821 51.764 36.0369 51.3794 35.8327 50.8045C35.8317 50.8017 35.8307 50.7989 35.8297 50.796L32.9725 42.5647C32.7454 41.9107 33.0916 41.1965 33.7456 40.9694C34.3997 40.7427 35.1139 41.0887 35.3408 41.7426L37.1694 47.0106L38.9092 41.7738C39.1274 41.1167 39.8368 40.761 40.4939 40.9794C41.151 41.1976 41.5066 41.9072 41.2883 42.5641ZM47.9567 45.0785C48.649 45.0785 49.2103 45.6398 49.2103 46.3321C49.2103 47.0243 48.649 47.5856 47.9567 47.5856H45.9487V49.2569H48.2164C48.9087 49.2569 49.4699 49.8182 49.4699 50.5105C49.4699 51.2027 48.9087 51.764 48.2164 51.764H44.6952C44.0029 51.764 43.4416 51.2027 43.4416 50.5105V42.1537C43.4416 41.4614 44.0029 40.9001 44.6952 40.9001H48.2164C48.9087 40.9001 49.4699 41.4614 49.4699 42.1537C49.4699 42.8459 48.9087 43.4072 48.2164 43.4072H45.9487V45.0785H47.9567Z" fill="#1AB0B0"/>
<path d="M36.1271 32.5397L34.5001 30.3865L32.873 32.5396C32.3485 33.2337 32.3086 34.0088 32.4738 34.6328H36.5263C36.6915 34.0088 36.6516 33.2337 36.1271 32.5397Z" fill="#1AB0B0"/>
<path d="M30.8729 31.0281L33.5001 27.5516C33.737 27.2381 34.1072 27.0538 34.5001 27.0538C34.893 27.0538 35.2633 27.2381 35.5002 27.5516L38.1273 31.0282C38.9211 32.0786 39.2441 33.3733 39.0809 34.6328H43.7712C45.4885 32.3527 46.1846 29.4666 45.5742 26.6709C44.8838 23.5086 42.6828 21.4406 41.4324 20.4893C41.0442 20.1942 40.5203 20.1508 40.089 20.3781C39.6576 20.6055 39.3973 21.0623 39.4215 21.5493C39.453 22.1843 39.0608 22.7815 38.4223 23.0709C38.1703 23.1851 37.9139 23.2357 37.6743 23.249C38.3989 20.676 38.3098 18.4188 37.406 16.5236C36.0752 13.7332 33.4496 12.8381 33.3385 12.8013C33.0148 12.6945 32.6611 12.7249 32.3594 12.8841C32.0579 13.0433 31.8339 13.3196 31.7396 13.6474C31.7273 13.6903 30.4673 17.9677 26.9835 21.0599C25.2165 22.6284 24.0222 24.4621 23.5299 26.3626C23.2819 27.32 23.0507 28.83 23.3584 30.586C23.619 32.0729 24.2108 33.4303 25.1183 34.6328H29.9193C29.756 33.3733 30.079 32.0786 30.8729 31.0281Z" fill="#1AB0B0"/>
</svg>
