<svg width="32" height="32" viewBox="0 0 32 32" fill="none" xmlns="http://www.w3.org/2000/svg">
<rect width="32" height="32" rx="10" fill="#FF0000"/>
<path d="M16.5604 7C18.7991 7 20.625 8.79455 20.625 11.0039V15.3234H15.1199C14.7254 15.3234 14.4134 15.6301 14.4134 16.0178C14.4134 16.3966 14.7254 16.7122 15.1199 16.7122H20.625V21.0227C20.625 23.2321 18.7991 25.0356 16.542 25.0356H12.0737C9.82585 25.0356 8 23.2411 8 21.0317V11.0129C8 8.79455 9.83502 7 12.0829 7H16.5604ZM22.9157 12.9069C23.1862 12.6273 23.6281 12.6273 23.8986 12.8978L26.5318 15.522C26.6671 15.6573 26.7392 15.8286 26.7392 16.018C26.7392 16.1984 26.6671 16.3787 26.5318 16.505L23.8986 19.1292C23.7633 19.2644 23.583 19.3366 23.4116 19.3366C23.2313 19.3366 23.0509 19.2644 22.9157 19.1292C22.6451 18.8586 22.6451 18.4167 22.9157 18.1462L24.3585 16.7124H20.6251V15.3236H24.3585L22.9157 13.8898C22.6451 13.6193 22.6451 13.1774 22.9157 12.9069Z" fill="white"/>
</svg>
