<svg width="32" height="32" viewBox="0 0 32 32" fill="none" xmlns="http://www.w3.org/2000/svg">
<rect width="32" height="32" rx="10" fill="#02468D"/>
<path d="M15.6546 6.01465C18.7211 6.01465 21.1885 8.42767 21.1885 11.4067V12.9389C22.9096 13.4761 24.1636 15.0342 24.1636 16.8951V21.8284C24.1636 24.1321 22.2536 26 19.8989 26H11.4417C9.086 26 7.17604 24.1321 7.17604 21.8284V16.8951C7.17604 15.0342 8.43107 13.4761 10.1511 12.9389V11.4067C10.1613 8.42767 12.6287 6.01465 15.6546 6.01465ZM15.6647 17.3906C15.1773 17.3906 14.7813 17.7779 14.7813 18.2545V20.459C14.7813 20.9456 15.1773 21.3328 15.6647 21.3328C16.1623 21.3328 16.5583 20.9456 16.5583 20.459V18.2545C16.5583 17.7779 16.1623 17.3906 15.6647 17.3906ZM15.6749 7.75242C13.6136 7.75242 11.9382 9.38096 11.9281 11.3868V12.7234H19.4115V11.4067C19.4115 9.39089 17.7361 7.75242 15.6749 7.75242Z" fill="white"/>
</svg>
