<svg width="32" height="32" viewBox="0 0 32 32" fill="none" xmlns="http://www.w3.org/2000/svg">
<rect width="32" height="32" rx="10" fill="#02468D"/>
<path d="M16.5372 7.09459L22.7842 9.21019C23.4834 9.44588 23.9563 10.0943 23.96 10.8209L23.9998 17.1295C24.0122 19.042 23.3214 20.8968 22.0565 22.35C21.4747 23.0171 20.729 23.59 19.7767 24.1023L16.4187 25.9142C16.3136 25.9701 16.198 25.999 16.0814 26C15.9649 26.0009 15.8483 25.9729 15.7441 25.918L12.3548 24.148C11.3922 23.644 10.6398 23.0795 10.0524 22.4218C8.76659 20.9834 8.05216 19.137 8.03984 17.2217L8.00002 10.9178C7.99626 10.1902 8.46054 9.53717 9.15602 9.29217L15.3793 7.10111C15.7488 6.96882 16.161 6.96603 16.5372 7.09459Z" fill="white"/>
</svg>
