<svg width="24" height="24" viewBox="0 0 24 24" fill="none" xmlns="http://www.w3.org/2000/svg">
<path d="M12 2C6.47755 2 2 6.47772 2 12.0004C2 17.5231 6.47755 22 12 22C17.5219 22 22 17.5231 22 12.0004C22 6.47772 17.5219 2 12 2ZM16.7048 14.3303C16.7048 14.3303 16.3364 12.7157 14.3456 12.3748C12.3575 12.0339 13.4003 16.3606 13.9338 16.8367C13.9707 16.8697 14.0235 16.9539 14.0869 17.0636C12.1487 17.7898 9.99808 17.8811 7.94051 17.1601C7.43873 16.9856 6.96945 16.7587 6.52123 16.5052C6.56829 16.4927 6.6117 16.4836 6.6585 16.4716C5.88009 11.5529 7.14312 9.67079 9.12451 7.89187C11.1062 6.11268 13.9624 6.30482 14.8022 6.48448C15.6747 6.12464 17.8495 6.58198 17.8495 6.58198C17.8495 6.58198 15.8242 7.46989 16.009 7.58741C16.1965 7.70363 18.5148 11.7919 18.5135 12.9603C17.8677 14.5406 16.7048 14.3303 16.7048 14.3303Z" fill="#9FA5C0"/>
</svg>
