<svg width="24" height="24" viewBox="0 0 24 24" fill="none" xmlns="http://www.w3.org/2000/svg">
<path d="M17.836 3.49072H15.9321V4.13694C15.9308 5.37707 14.9257 6.3822 13.6856 6.38349H10.3548C9.11463 6.3822 8.10949 5.37707 8.10821 4.13694V3.49072H6.20428C5.38825 3.49179 4.72724 4.15281 4.72617 4.96884V20.6108C4.72702 21.4269 5.38825 22.0881 6.20428 22.089H17.836C18.6521 22.0881 19.3133 21.4269 19.3141 20.6108V4.96884C19.3133 4.15281 18.6521 3.49179 17.836 3.49072Z" fill="#9FA5C0"/>
<path d="M10.3548 5.6151H13.6856C14.5016 5.61424 15.1628 4.95302 15.1637 4.13699V3.49077H13.9105C13.7302 3.49077 13.5741 3.36512 13.5353 3.18888C13.3839 2.5 12.7469 2 12.0203 2C11.2936 2 10.6564 2.5 10.5053 3.1891C10.4667 3.36534 10.3104 3.49098 10.1301 3.49098H8.87665V4.1372C8.87772 4.95302 9.53895 5.61424 10.3548 5.6151Z" fill="#9FA5C0"/>
</svg>
