<svg width="69" height="69" viewBox="0 0 69 69" fill="none" xmlns="http://www.w3.org/2000/svg">
<rect opacity="0.1" width="69" height="69" rx="16" fill="#8676FE"/>
<path d="M46.7757 14.8995H43.9821C43.1894 14.8995 42.5467 15.5421 42.5467 16.3348C42.5439 19.0894 40.3113 21.3219 37.5568 21.3248H30.1585C27.404 21.3219 25.1714 19.0894 25.1685 16.3348C25.1685 15.5421 24.5259 14.8995 23.7332 14.8995H20.9396C19.127 14.9019 17.6588 16.3701 17.6564 18.1826V52.9262C17.6583 54.7387 19.127 56.2074 20.9396 56.2093H46.7757C48.5882 56.2074 50.0569 54.7387 50.0588 52.9262V18.1826C50.0569 16.3701 48.5882 14.9019 46.7757 14.8995Z" fill="#8676FE"/>
<path d="M30.1585 19.618H37.5567C39.3693 19.6161 40.838 18.1473 40.8399 16.3348C40.8399 15.5421 40.1973 14.8994 39.4045 14.8994H38.0563C37.6558 14.8994 37.3091 14.6204 37.2229 14.2289C36.8867 12.6988 35.4718 11.5882 33.8578 11.5882C32.2439 11.5882 30.8285 12.6988 30.4928 14.2294C30.4071 14.6208 30.0599 14.8999 29.6594 14.8999H28.3107C27.518 14.8999 26.8753 15.5426 26.8753 16.3353C26.8777 18.1473 28.3464 19.6161 30.1585 19.618Z" fill="#8676FE"/>
</svg>
