<svg width="69" height="69" viewBox="0 0 69 69" fill="none" xmlns="http://www.w3.org/2000/svg">
<rect opacity="0.1" width="69" height="69" rx="16" fill="#FA5A7D"/>
<path d="M44.4402 46.8804C45.2043 46.1215 46.429 46.1215 47.1931 46.8804L52.2429 50.9566H52.3306C53.3522 51.9893 53.3522 53.6635 52.3306 54.6961C51.3089 55.7288 49.6525 55.7288 48.6309 54.6961L44.4402 49.8933L44.2812 49.7138C43.985 49.3389 43.8214 48.8714 43.8214 48.3868C43.8214 47.8215 44.0441 47.2794 44.4402 46.8804ZM30.5181 15.9364C35.015 15.9364 39.3277 17.742 42.5075 20.956C45.6873 24.17 47.4736 28.5291 47.4736 33.0743C47.4736 42.5394 39.8824 50.2123 30.5181 50.2123C21.1538 50.2123 13.5626 42.5394 13.5626 33.0743C13.5626 23.6093 21.1538 15.9364 30.5181 15.9364Z" fill="#FA5A7D"/>
</svg>
