<svg width="20" height="21" viewBox="0 0 20 21" fill="none" xmlns="http://www.w3.org/2000/svg">
<path d="M19.1268 18.2327L19.1267 18.2325L16.4905 15.6018C17.8609 14.0262 18.6919 11.9685 18.6919 9.72053C18.6919 4.77354 14.6684 0.75 9.72142 0.75C4.77447 0.75 0.75 4.77351 0.75 9.72053C0.75 14.6675 4.77444 18.6919 9.72142 18.6919C11.7569 18.6919 13.6364 18.0104 15.1431 16.8638L17.8243 19.5375L17.8246 19.5379C18.0048 19.7168 18.2408 19.8066 18.4754 19.8066C18.7102 19.8066 18.9481 19.7172 19.1283 19.5349C19.4882 19.1744 19.4862 18.592 19.1268 18.2327ZM2.59327 9.72053C2.59327 5.79031 5.79113 2.59327 9.72142 2.59327C13.6508 2.59327 16.8487 5.79029 16.8487 9.72053C16.8487 13.6508 13.6508 16.8487 9.72142 16.8487C5.79117 16.8487 2.59327 13.6508 2.59327 9.72053Z" fill="#02468D" stroke="#02468D" stroke-width="0.5"/>
</svg>
