<svg width="14" height="14" viewBox="0 0 14 14" fill="none" xmlns="http://www.w3.org/2000/svg">
<path fill-rule="evenodd" clip-rule="evenodd" d="M11.6667 1.01179L13.9231 4.96059C13.9735 5.04872 14 5.14848 14 5.25V13.4167C14 13.5714 13.9385 13.7197 13.8291 13.8291C13.7197 13.9385 13.5714 14 13.4167 14H0.583333C0.428624 14 0.280251 13.9385 0.170854 13.8291C0.0614582 13.7197 0 13.5714 0 13.4167V5.25C0.000972123 5.14862 0.027399 5.0491 0.0768542 4.96059L2.33333 1.01179V0H3.5V0.583333H10.5V0H11.6667V1.01179ZM9.33333 9.33333H12.8333V5.40495L11.0833 2.34245L9.33333 5.40495V9.33333ZM12.8333 11.0833V10.5H9.33333V11.0833H12.8333ZM9.33333 12.25V12.8333H12.8333V12.25H9.33333ZM3.01752 7.10089C3.45496 6.66345 4.04805 6.4174 4.66667 6.4167C5.2853 6.4174 5.87839 6.66345 6.31582 7.10089C6.75325 7.53832 6.99931 8.13141 7 8.75004V9.9167C7 10.0714 6.93855 10.2198 6.82915 10.3292C6.71975 10.4386 6.57138 10.5 6.41667 10.5H2.91667C2.76196 10.5 2.61359 10.4386 2.50419 10.3292C2.3948 10.2198 2.33334 10.0714 2.33334 9.9167V8.75004C2.33403 8.13141 2.58009 7.53832 3.01752 7.10089Z" fill="white"/>
</svg>
