<svg width="69" height="69" viewBox="0 0 69 69" fill="none" xmlns="http://www.w3.org/2000/svg">
<rect opacity="0.1" width="69" height="69" rx="16" fill="#FF7443"/>
<path d="M50.1929 34.7662H34.2315V18.8066C34.2315 18.6103 34.0708 18.4496 33.8745 18.4496H32.7139C30.3719 18.4472 28.0524 18.9072 25.8886 19.8033C23.7248 20.6994 21.7592 22.0138 20.1046 23.6713C18.4756 25.295 17.1779 27.2201 16.2839 29.3392C15.3555 31.5395 14.8824 33.8736 14.8824 36.2836C14.8824 38.6936 15.3555 41.0233 16.2839 43.2235C17.181 45.3434 18.4665 47.2536 20.1046 48.8915C21.7427 50.5294 23.6486 51.8147 25.7732 52.7118C27.9699 53.6436 30.3323 54.1218 32.7184 54.1176C35.0605 54.12 37.38 53.6599 39.5438 52.7639C41.7076 51.8678 43.6732 50.5534 45.3277 48.8959C46.9658 47.258 48.2513 45.3523 49.1485 43.228C50.0804 41.0316 50.5586 38.6695 50.5545 36.2836V35.1232C50.55 34.9268 50.3893 34.7662 50.1929 34.7662ZM54.1163 32.2892L54.0003 31.0307C53.6209 26.9248 51.7998 23.0509 48.8628 20.1277C45.9286 17.1962 42.062 15.3823 37.9318 14.9997L36.6686 14.8837C36.4588 14.8658 36.2803 15.0265 36.2803 15.2363V32.3606C36.2803 32.557 36.441 32.7177 36.6373 32.7177L53.7592 32.6731C53.969 32.6686 54.1342 32.4945 54.1163 32.2892Z" fill="#FF7443"/>
</svg>
