<svg width="32" height="32" viewBox="0 0 32 32" fill="none" xmlns="http://www.w3.org/2000/svg">
<rect width="32" height="32" rx="10" fill="#02468D"/>
<path d="M19.7253 7C22.4711 7 24 8.602 24 11.347V20.644C24 23.434 22.4711 25 19.7253 25H12.2756C9.57333 25 8 23.434 8 20.644V11.347C8 8.602 9.57333 7 12.2756 7H19.7253ZM12.5156 19.366C12.2489 19.339 11.9911 19.465 11.8489 19.699C11.7067 19.924 11.7067 20.221 11.8489 20.455C11.9911 20.68 12.2489 20.815 12.5156 20.779H19.4844C19.8391 20.743 20.1067 20.4361 20.1067 20.077C20.1067 19.708 19.8391 19.402 19.4844 19.366H12.5156ZM19.4844 15.2611H12.5156C12.1324 15.2611 11.8222 15.577 11.8222 15.964C11.8222 16.351 12.1324 16.666 12.5156 16.666H19.4844C19.8667 16.666 20.1778 16.351 20.1778 15.964C20.1778 15.577 19.8667 15.2611 19.4844 15.2611ZM15.1724 11.185H12.5156V11.194C12.1324 11.194 11.8222 11.509 11.8222 11.896C11.8222 12.283 12.1324 12.598 12.5156 12.598H15.1724C15.5556 12.598 15.8667 12.283 15.8667 11.8861C15.8667 11.5 15.5556 11.185 15.1724 11.185Z" fill="white"/>
</svg>
