<svg width="14" height="14" viewBox="0 0 14 14" fill="none" xmlns="http://www.w3.org/2000/svg">
<path d="M6.87085 0.258301C10.6704 0.258301 13.7417 3.33644 13.7417 7.12915C13.7417 10.9287 10.6704 14 6.87085 14C3.07814 14 0 10.9287 0 7.12915C0 3.33644 3.07814 0.258301 6.87085 0.258301ZM6.63037 3.64563C6.34866 3.64563 6.11506 3.87237 6.11506 4.16094V7.63072C6.11506 7.80936 6.21125 7.97427 6.36928 8.07046L9.06265 9.67824C9.1451 9.72633 9.23442 9.75381 9.33061 9.75381C9.50239 9.75381 9.67416 9.66449 9.77035 9.49959C9.91464 9.25911 9.83906 8.94306 9.59171 8.7919L7.14568 7.33528V4.16094C7.14568 3.87237 6.91207 3.64563 6.63037 3.64563Z" fill="white"/>
</svg>
