<svg width="14" height="14" viewBox="0 0 14 14" fill="none" xmlns="http://www.w3.org/2000/svg">
<path d="M6.87085 0C10.6704 0 13.7417 3.07814 13.7417 6.87085C13.7417 10.6704 10.6704 13.7417 6.87085 13.7417C3.07814 13.7417 0 10.6704 0 6.87085C0 3.07814 3.07814 0 6.87085 0ZM6.63037 3.38733C6.34866 3.38733 6.11506 3.61407 6.11506 3.90264V7.37242C6.11506 7.55106 6.21125 7.71596 6.36928 7.81216L9.06265 9.41994C9.1451 9.46803 9.23442 9.49551 9.33061 9.49551C9.50239 9.49551 9.67416 9.40619 9.77035 9.24129C9.91464 9.00081 9.83906 8.68475 9.59171 8.5336L7.14568 7.07698V3.90264C7.14568 3.61407 6.91207 3.38733 6.63037 3.38733Z" fill="#02468D"/>
</svg>
